<svg xmlns="http://www.w3.org/2000/svg" xmlns:xlink="http://www.w3.org/1999/xlink" version="1.1" id="Layer_1" x="0px" y="0px" width="50px" height="50px" viewBox="2.5 -5.0 50.0 67.5" enable-background="new 0 0 50 50" xml:space="preserve">
<g>
	<path fill="#000000" d="M23.94,17.349l0.367,29.999c-0.638,0.381-1.279,0.537-1.933,0.482c-0.67-0.047-1.408-0.047-2.209,0.021   c-1.441,0.114-2.492,0.655-3.147,1.629h17.341c-0.586-1.183-1.967-1.769-4.146-1.769c-1.813,0.164-3.134,0.035-3.913-0.364   l-0.367-30L23.94,17.349L23.94,17.349z M34.359,17.349h-18.72l5.907-14.935h6.783L34.359,17.349z M24.956,0.519   c0.651,0,0.978,0.344,0.978,1.012c0,0.59-0.324,0.884-0.978,0.884c-0.676,0-1.016-0.294-1.016-0.884   C23.94,0.863,24.28,0.519,24.956,0.519L24.956,0.519z"/>
</g>
<text x="0.0" y="58.75" font-size="2.5" font-weight="bold" font-family="Helvetica Neue, Helvetica, Arial-Unicode, Arial, Sans-serif" fill="#000000">Created by Mister Pixel</text><text x="0.0" y="61.25" font-size="2.5" font-weight="bold" font-family="Helvetica Neue, Helvetica, Arial-Unicode, Arial, Sans-serif" fill="#000000">from the Noun Project</text></svg>