<?xml version="1.0" encoding="UTF-8" ?>
<!DOCTYPE svg PUBLIC "-//W3C//DTD SVG 1.1//EN" "http://www.w3.org/Graphics/SVG/1.1/DTD/svg11.dtd">
<svg width="50pt" height="50pt" viewBox="0 0 50 50" version="1.1" xmlns="http://www.w3.org/2000/svg">
<path fill="#ffffff" d=" M 0.00 0.00 L 50.00 0.00 L 50.00 50.00 L 0.00 50.00 L 0.00 0.00 Z" />
<path fill="#000000" d=" M 22.50 5.16 C 22.53 4.86 22.60 4.28 22.64 3.98 L 23.56 4.01 L 23.69 5.09 C 25.04 5.37 26.15 6.16 26.50 7.55 C 27.72 10.53 28.81 13.56 30.09 16.52 C 28.00 16.53 25.92 16.55 23.84 16.53 C 23.93 23.96 24.01 31.38 24.11 38.81 C 26.31 38.91 28.51 39.21 30.52 40.13 C 25.96 40.47 21.38 40.43 16.82 40.13 C 18.69 39.47 20.64 39.04 22.62 38.87 C 22.56 31.42 22.45 23.98 22.36 16.53 C 20.31 16.54 18.26 16.53 16.21 16.53 C 17.83 13.01 18.71 9.13 20.71 5.81 C 21.16 5.65 22.05 5.32 22.50 5.16 Z" />
</svg>
