<?xml version="1.0" encoding="UTF-8" ?>
<!DOCTYPE svg PUBLIC "-//W3C//DTD SVG 1.1//EN" "http://www.w3.org/Graphics/SVG/1.1/DTD/svg11.dtd">
<svg width="100pt" height="100pt" viewBox="0 0 100 100" version="1.1" xmlns="http://www.w3.org/2000/svg">
<path fill="#ffffff" d=" M 0.00 0.00 L 100.00 0.00 L 100.00 100.00 L 0.00 100.00 L 0.00 0.00 Z" />
<path fill="#000000" d=" M 20.00 11.20 C 37.53 11.20 55.06 11.20 72.59 11.20 C 72.59 33.42 72.59 55.64 72.59 77.86 C 55.06 77.87 37.53 77.86 20.00 77.87 C 20.00 55.64 20.00 33.42 20.00 11.20 Z" />
<path fill="#ffffff" d=" M 33.44 14.40 C 37.32 14.40 41.19 14.40 45.07 14.40 C 45.07 25.38 45.07 36.36 45.07 47.33 C 40.56 47.34 36.06 47.32 31.55 47.34 C 33.67 36.50 33.51 25.40 33.44 14.40 Z" />
<path fill="#ffffff" d=" M 47.52 14.40 C 51.59 14.40 55.67 14.40 59.74 14.40 C 59.67 25.40 59.48 36.51 61.62 47.35 C 56.92 47.32 52.22 47.34 47.52 47.33 C 47.52 36.36 47.52 25.38 47.52 14.40 Z" />
<path fill="#ffffff" d=" M 30.73 50.40 C 41.31 50.40 51.88 50.39 62.45 50.41 C 63.68 54.83 65.47 59.04 67.21 63.28 C 67.69 67.11 66.99 70.93 66.56 74.73 C 53.25 74.73 39.93 74.74 26.62 74.73 C 26.20 69.95 24.66 64.71 27.18 60.25 C 28.66 57.08 29.67 53.73 30.73 50.40 Z" />
</svg>
